<svg width="73" height="33" viewBox="0 0 73 33" fill="none" xmlns="http://www.w3.org/2000/svg">
<path d="M12.3877 22.2295L8.04004 29H3.50391L9.96582 19.25L12.3877 22.2295ZM14.4482 13.1602L20.6396 3.44043H25.1758L16.752 16.1123L25.2842 29H20.7119L14.376 19.1357L14.3662 19.1504L11.9922 16.167L11.9902 16.1689L3.57617 3.44043H8.14844L14.4482 13.1602Z" fill="white"/>
<mask id="mask0_2049_56" style="mask-type:alpha" maskUnits="userSpaceOnUse" x="28" y="9" width="43" height="13">
<path d="M28.28 21V12.52H29.512L29.56 14.664L29.368 14.6C29.464 14.1307 29.6293 13.7307 29.864 13.4C30.1093 13.0587 30.408 12.7973 30.76 12.616C31.112 12.424 31.5013 12.328 31.928 12.328C32.664 12.328 33.2613 12.5307 33.72 12.936C34.1893 13.3413 34.4827 13.9067 34.6 14.632L34.344 14.616C34.4293 14.1253 34.584 13.7147 34.808 13.384C35.0427 13.0427 35.3413 12.7813 35.704 12.6C36.0667 12.4187 36.4827 12.328 36.952 12.328C37.56 12.328 38.072 12.456 38.488 12.712C38.904 12.9573 39.2187 13.32 39.432 13.8C39.6453 14.28 39.752 14.8613 39.752 15.544V21H38.408V15.832C38.408 15.064 38.2587 14.488 37.96 14.104C37.6613 13.7093 37.2187 13.512 36.632 13.512C36.2373 13.512 35.8907 13.608 35.592 13.8C35.304 13.992 35.08 14.2693 34.92 14.632C34.76 14.984 34.68 15.416 34.68 15.928V21H33.336V15.928C33.336 15.1707 33.2027 14.5787 32.936 14.152C32.6693 13.7253 32.2213 13.512 31.592 13.512C31.1973 13.512 30.8507 13.608 30.552 13.8C30.264 13.992 30.0347 14.2693 29.864 14.632C29.704 14.9947 29.624 15.4267 29.624 15.928V21H28.28ZM44.8609 21.192C44.0182 21.192 43.3409 20.9093 42.8289 20.344C42.3275 19.768 42.0769 18.9787 42.0769 17.976V12.52H43.4209V17.608C43.4209 18.4293 43.5649 19.0373 43.8529 19.432C44.1515 19.816 44.6049 20.008 45.2129 20.008C45.8849 20.008 46.4129 19.7947 46.7969 19.368C47.1809 18.9307 47.3729 18.3333 47.3729 17.576V12.52H48.7169V21H47.4369V18.904L47.6449 19.016C47.4742 19.7093 47.1489 20.248 46.6689 20.632C46.1889 21.0053 45.5862 21.192 44.8609 21.192ZM54.2118 21.192C53.4544 21.192 52.8091 21.0693 52.2758 20.824C51.7531 20.5787 51.3424 20.2427 51.0438 19.816C50.7558 19.3787 50.5904 18.8827 50.5478 18.328L51.9557 18.232C52.0411 18.744 52.2598 19.1547 52.6118 19.464C52.9638 19.7627 53.4971 19.912 54.2118 19.912C54.7878 19.912 55.2464 19.8213 55.5878 19.64C55.9398 19.448 56.1158 19.144 56.1158 18.728C56.1158 18.504 56.0624 18.3173 55.9558 18.168C55.8491 18.0187 55.6411 17.8907 55.3318 17.784C55.0224 17.6667 54.5638 17.5547 53.9557 17.448C53.1451 17.2987 52.5051 17.1173 52.0358 16.904C51.5771 16.68 51.2464 16.408 51.0438 16.088C50.8518 15.7573 50.7558 15.368 50.7558 14.92C50.7558 14.1627 51.0331 13.544 51.5878 13.064C52.1424 12.5733 52.9318 12.328 53.9557 12.328C54.6491 12.328 55.2304 12.456 55.6998 12.712C56.1798 12.9573 56.5531 13.288 56.8198 13.704C57.0971 14.1093 57.2784 14.5573 57.3638 15.048L55.9558 15.144C55.8918 14.8453 55.7744 14.584 55.6038 14.36C55.4331 14.1253 55.2091 13.944 54.9318 13.816C54.6544 13.6773 54.3238 13.608 53.9398 13.608C53.3318 13.608 52.8838 13.7253 52.5958 13.96C52.3078 14.1947 52.1638 14.4933 52.1638 14.856C52.1638 15.1333 52.2278 15.3627 52.3558 15.544C52.4944 15.7147 52.7131 15.8587 53.0118 15.976C53.3104 16.0827 53.7104 16.1787 54.2118 16.264C55.0758 16.4133 55.7478 16.5947 56.2278 16.808C56.7078 17.0213 57.0438 17.2827 57.2358 17.592C57.4278 17.9013 57.5238 18.28 57.5238 18.728C57.5238 19.2507 57.3744 19.6987 57.0758 20.072C56.7878 20.4347 56.3931 20.712 55.8918 20.904C55.4011 21.096 54.8411 21.192 54.2118 21.192ZM59.3581 21V12.52H60.7021V21H59.3581ZM59.3261 11.192V9.624H60.7341V11.192H59.3261ZM66.4201 21.192C65.6308 21.192 64.9428 21.0107 64.3561 20.648C63.7801 20.2853 63.3321 19.7733 63.0121 19.112C62.6921 18.44 62.5321 17.656 62.5321 16.76C62.5321 15.864 62.6921 15.0853 63.0121 14.424C63.3321 13.7627 63.7801 13.2507 64.3561 12.888C64.9428 12.5147 65.6308 12.328 66.4201 12.328C67.0708 12.328 67.6468 12.4453 68.1481 12.68C68.6601 12.904 69.0761 13.2347 69.3961 13.672C69.7161 14.1093 69.9241 14.6427 70.0201 15.272L68.6121 15.368C68.5161 14.8027 68.2708 14.3707 67.8761 14.072C67.4815 13.7627 66.9961 13.608 66.4201 13.608C65.6415 13.608 65.0335 13.8907 64.5961 14.456C64.1588 15.0107 63.9401 15.7787 63.9401 16.76C63.9401 17.7413 64.1588 18.5147 64.5961 19.08C65.0335 19.6347 65.6415 19.912 66.4201 19.912C66.9961 19.912 67.4815 19.752 67.8761 19.432C68.2708 19.112 68.5161 18.632 68.6121 17.992L70.0201 18.088C69.9241 18.7173 69.7161 19.2667 69.3961 19.736C69.0761 20.1947 68.6601 20.552 68.1481 20.808C67.6468 21.064 67.0708 21.192 66.4201 21.192Z" fill="white"/>
</mask>
<g mask="url(#mask0_2049_56)">
<rect x="26" y="9" width="48" height="13" fill="url(#paint0_linear_2049_56)"/>
</g>
<defs>
<linearGradient id="paint0_linear_2049_56" x1="74" y1="9.05074" x2="67.3038" y2="33.3373" gradientUnits="userSpaceOnUse">
<stop offset="0.0650485" stop-color="#DB1E1E"/>
<stop offset="1" stop-color="#8D15D3"/>
</linearGradient>
</defs>
</svg>
